<mxfile host="app.diagrams.net" modified="2021-03-08T09:44:12.754Z" agent="5.0 (Windows NT 10.0; Win64; x64) AppleWebKit/537.36 (KHTML, like Gecko) Chrome/88.0.4324.190 Safari/537.36" etag="hnxGOhut9aGZBRtygnMu" version="14.4.4" type="github">
  <diagram name="Page-1" id="e56a1550-8fbb-45ad-956c-1786394a9013">
    <mxGraphModel dx="1422" dy="762" grid="1" gridSize="10" guides="1" tooltips="1" connect="1" arrows="1" fold="1" page="1" pageScale="1" pageWidth="1100" pageHeight="850" background="#ffffff" math="0" shadow="0">
      <root>
        <mxCell id="0" />
        <mxCell id="1" parent="0" />
        <mxCell id="M6c7fhZQipC6nJDo4fWO-20" value="CellpyData" style="shape=table;startSize=30;container=1;collapsible=1;childLayout=tableLayout;fixedRows=1;rowLines=0;fontStyle=1;align=center;resizeLast=1;" vertex="1" parent="1">
          <mxGeometry x="110" y="400" width="180" height="190" as="geometry" />
        </mxCell>
        <mxCell id="M6c7fhZQipC6nJDo4fWO-21" value="" style="shape=partialRectangle;collapsible=0;dropTarget=0;pointerEvents=0;fillColor=none;top=0;left=0;bottom=1;right=0;points=[[0,0.5],[1,0.5]];portConstraint=eastwest;" vertex="1" parent="M6c7fhZQipC6nJDo4fWO-20">
          <mxGeometry y="30" width="180" height="30" as="geometry" />
        </mxCell>
        <mxCell id="M6c7fhZQipC6nJDo4fWO-22" value="type" style="shape=partialRectangle;connectable=0;fillColor=none;top=0;left=0;bottom=0;right=0;fontStyle=1;overflow=hidden;" vertex="1" parent="M6c7fhZQipC6nJDo4fWO-21">
          <mxGeometry width="70" height="30" as="geometry" />
        </mxCell>
        <mxCell id="M6c7fhZQipC6nJDo4fWO-23" value="name" style="shape=partialRectangle;connectable=0;fillColor=none;top=0;left=0;bottom=0;right=0;align=left;spacingLeft=6;fontStyle=1;overflow=hidden;" vertex="1" parent="M6c7fhZQipC6nJDo4fWO-21">
          <mxGeometry x="70" width="110" height="30" as="geometry" />
        </mxCell>
        <mxCell id="M6c7fhZQipC6nJDo4fWO-24" value="" style="shape=partialRectangle;collapsible=0;dropTarget=0;pointerEvents=0;fillColor=none;top=0;left=0;bottom=0;right=0;points=[[0,0.5],[1,0.5]];portConstraint=eastwest;" vertex="1" parent="M6c7fhZQipC6nJDo4fWO-20">
          <mxGeometry y="60" width="180" height="30" as="geometry" />
        </mxCell>
        <mxCell id="M6c7fhZQipC6nJDo4fWO-25" value="list" style="shape=partialRectangle;connectable=0;fillColor=none;top=0;left=0;bottom=0;right=0;editable=1;overflow=hidden;" vertex="1" parent="M6c7fhZQipC6nJDo4fWO-24">
          <mxGeometry width="70" height="30" as="geometry" />
        </mxCell>
        <mxCell id="M6c7fhZQipC6nJDo4fWO-26" value="Cells" style="shape=partialRectangle;connectable=0;fillColor=none;top=0;left=0;bottom=0;right=0;align=left;spacingLeft=6;overflow=hidden;" vertex="1" parent="M6c7fhZQipC6nJDo4fWO-24">
          <mxGeometry x="70" width="110" height="30" as="geometry" />
        </mxCell>
        <mxCell id="M6c7fhZQipC6nJDo4fWO-27" value="" style="shape=partialRectangle;collapsible=0;dropTarget=0;pointerEvents=0;fillColor=none;top=0;left=0;bottom=0;right=0;points=[[0,0.5],[1,0.5]];portConstraint=eastwest;" vertex="1" parent="M6c7fhZQipC6nJDo4fWO-20">
          <mxGeometry y="90" width="180" height="30" as="geometry" />
        </mxCell>
        <mxCell id="M6c7fhZQipC6nJDo4fWO-28" value="prop" style="shape=partialRectangle;connectable=0;fillColor=none;top=0;left=0;bottom=0;right=0;editable=1;overflow=hidden;" vertex="1" parent="M6c7fhZQipC6nJDo4fWO-27">
          <mxGeometry width="70" height="30" as="geometry" />
        </mxCell>
        <mxCell id="M6c7fhZQipC6nJDo4fWO-29" value="cell" style="shape=partialRectangle;connectable=0;fillColor=none;top=0;left=0;bottom=0;right=0;align=left;spacingLeft=6;overflow=hidden;" vertex="1" parent="M6c7fhZQipC6nJDo4fWO-27">
          <mxGeometry x="70" width="110" height="30" as="geometry" />
        </mxCell>
        <mxCell id="M6c7fhZQipC6nJDo4fWO-30" value="" style="shape=partialRectangle;collapsible=0;dropTarget=0;pointerEvents=0;fillColor=none;top=0;left=0;bottom=0;right=0;points=[[0,0.5],[1,0.5]];portConstraint=eastwest;" vertex="1" parent="M6c7fhZQipC6nJDo4fWO-20">
          <mxGeometry y="120" width="180" height="30" as="geometry" />
        </mxCell>
        <mxCell id="M6c7fhZQipC6nJDo4fWO-31" value="method" style="shape=partialRectangle;connectable=0;fillColor=none;top=0;left=0;bottom=0;right=0;editable=1;overflow=hidden;" vertex="1" parent="M6c7fhZQipC6nJDo4fWO-30">
          <mxGeometry width="70" height="30" as="geometry" />
        </mxCell>
        <mxCell id="M6c7fhZQipC6nJDo4fWO-32" value="save" style="shape=partialRectangle;connectable=0;fillColor=none;top=0;left=0;bottom=0;right=0;align=left;spacingLeft=6;overflow=hidden;" vertex="1" parent="M6c7fhZQipC6nJDo4fWO-30">
          <mxGeometry x="70" width="110" height="30" as="geometry" />
        </mxCell>
        <mxCell id="M6c7fhZQipC6nJDo4fWO-36" value="method" style="shape=partialRectangle;connectable=0;fillColor=none;top=0;left=0;bottom=0;right=0;editable=1;overflow=hidden;" vertex="1" parent="1">
          <mxGeometry x="110" y="550" width="70" height="30" as="geometry" />
        </mxCell>
        <mxCell id="M6c7fhZQipC6nJDo4fWO-37" value="get_" style="shape=partialRectangle;connectable=0;fillColor=none;top=0;left=0;bottom=0;right=0;align=left;spacingLeft=6;overflow=hidden;" vertex="1" parent="1">
          <mxGeometry x="180" y="550" width="140" height="30" as="geometry" />
        </mxCell>
        <mxCell id="M6c7fhZQipC6nJDo4fWO-38" value="" style="shape=ext;double=1;rounded=0;whiteSpace=wrap;html=1;" vertex="1" parent="1">
          <mxGeometry x="470" y="350" width="350" height="480" as="geometry" />
        </mxCell>
        <mxCell id="M6c7fhZQipC6nJDo4fWO-34" value="list" style="shape=partialRectangle;connectable=0;fillColor=none;top=0;left=0;bottom=0;right=0;editable=1;overflow=hidden;" vertex="1" parent="1">
          <mxGeometry x="510" y="530" width="70" height="30" as="geometry" />
        </mxCell>
        <mxCell id="M6c7fhZQipC6nJDo4fWO-41" value="" style="group" vertex="1" connectable="0" parent="1">
          <mxGeometry x="520" y="370" width="250" height="190" as="geometry" />
        </mxCell>
        <mxCell id="M6c7fhZQipC6nJDo4fWO-7" value="Cell" style="shape=table;startSize=30;container=1;collapsible=1;childLayout=tableLayout;fixedRows=1;rowLines=0;fontStyle=1;align=center;resizeLast=1;" vertex="1" parent="M6c7fhZQipC6nJDo4fWO-41">
          <mxGeometry width="250" height="190" as="geometry" />
        </mxCell>
        <mxCell id="M6c7fhZQipC6nJDo4fWO-8" value="" style="shape=partialRectangle;collapsible=0;dropTarget=0;pointerEvents=0;fillColor=none;top=0;left=0;bottom=1;right=0;points=[[0,0.5],[1,0.5]];portConstraint=eastwest;" vertex="1" parent="M6c7fhZQipC6nJDo4fWO-7">
          <mxGeometry y="30" width="250" height="30" as="geometry" />
        </mxCell>
        <mxCell id="M6c7fhZQipC6nJDo4fWO-9" value="type" style="shape=partialRectangle;connectable=0;fillColor=none;top=0;left=0;bottom=0;right=0;fontStyle=1;overflow=hidden;" vertex="1" parent="M6c7fhZQipC6nJDo4fWO-8">
          <mxGeometry width="70" height="30" as="geometry" />
        </mxCell>
        <mxCell id="M6c7fhZQipC6nJDo4fWO-10" value="name" style="shape=partialRectangle;connectable=0;fillColor=none;top=0;left=0;bottom=0;right=0;align=left;spacingLeft=6;fontStyle=1;overflow=hidden;" vertex="1" parent="M6c7fhZQipC6nJDo4fWO-8">
          <mxGeometry x="70" width="180" height="30" as="geometry" />
        </mxCell>
        <mxCell id="M6c7fhZQipC6nJDo4fWO-11" value="" style="shape=partialRectangle;collapsible=0;dropTarget=0;pointerEvents=0;fillColor=none;top=0;left=0;bottom=0;right=0;points=[[0,0.5],[1,0.5]];portConstraint=eastwest;" vertex="1" parent="M6c7fhZQipC6nJDo4fWO-7">
          <mxGeometry y="60" width="250" height="30" as="geometry" />
        </mxCell>
        <mxCell id="M6c7fhZQipC6nJDo4fWO-12" value="df" style="shape=partialRectangle;connectable=0;fillColor=none;top=0;left=0;bottom=0;right=0;editable=1;overflow=hidden;" vertex="1" parent="M6c7fhZQipC6nJDo4fWO-11">
          <mxGeometry width="70" height="30" as="geometry" />
        </mxCell>
        <mxCell id="M6c7fhZQipC6nJDo4fWO-13" value="raw" style="shape=partialRectangle;connectable=0;fillColor=none;top=0;left=0;bottom=0;right=0;align=left;spacingLeft=6;overflow=hidden;" vertex="1" parent="M6c7fhZQipC6nJDo4fWO-11">
          <mxGeometry x="70" width="180" height="30" as="geometry" />
        </mxCell>
        <mxCell id="M6c7fhZQipC6nJDo4fWO-14" value="" style="shape=partialRectangle;collapsible=0;dropTarget=0;pointerEvents=0;fillColor=none;top=0;left=0;bottom=0;right=0;points=[[0,0.5],[1,0.5]];portConstraint=eastwest;" vertex="1" parent="M6c7fhZQipC6nJDo4fWO-7">
          <mxGeometry y="90" width="250" height="30" as="geometry" />
        </mxCell>
        <mxCell id="M6c7fhZQipC6nJDo4fWO-15" value="df" style="shape=partialRectangle;connectable=0;fillColor=none;top=0;left=0;bottom=0;right=0;editable=1;overflow=hidden;" vertex="1" parent="M6c7fhZQipC6nJDo4fWO-14">
          <mxGeometry width="70" height="30" as="geometry" />
        </mxCell>
        <mxCell id="M6c7fhZQipC6nJDo4fWO-16" value="summary" style="shape=partialRectangle;connectable=0;fillColor=none;top=0;left=0;bottom=0;right=0;align=left;spacingLeft=6;overflow=hidden;" vertex="1" parent="M6c7fhZQipC6nJDo4fWO-14">
          <mxGeometry x="70" width="180" height="30" as="geometry" />
        </mxCell>
        <mxCell id="M6c7fhZQipC6nJDo4fWO-17" value="" style="shape=partialRectangle;collapsible=0;dropTarget=0;pointerEvents=0;fillColor=none;top=0;left=0;bottom=0;right=0;points=[[0,0.5],[1,0.5]];portConstraint=eastwest;" vertex="1" parent="M6c7fhZQipC6nJDo4fWO-7">
          <mxGeometry y="120" width="250" height="30" as="geometry" />
        </mxCell>
        <mxCell id="M6c7fhZQipC6nJDo4fWO-18" value="df" style="shape=partialRectangle;connectable=0;fillColor=none;top=0;left=0;bottom=0;right=0;editable=1;overflow=hidden;" vertex="1" parent="M6c7fhZQipC6nJDo4fWO-17">
          <mxGeometry width="70" height="30" as="geometry" />
        </mxCell>
        <mxCell id="M6c7fhZQipC6nJDo4fWO-19" value="steps" style="shape=partialRectangle;connectable=0;fillColor=none;top=0;left=0;bottom=0;right=0;align=left;spacingLeft=6;overflow=hidden;" vertex="1" parent="M6c7fhZQipC6nJDo4fWO-17">
          <mxGeometry x="70" width="180" height="30" as="geometry" />
        </mxCell>
        <mxCell id="M6c7fhZQipC6nJDo4fWO-35" value="raw_units" style="shape=partialRectangle;connectable=0;fillColor=none;top=0;left=0;bottom=0;right=0;align=left;spacingLeft=6;overflow=hidden;" vertex="1" parent="M6c7fhZQipC6nJDo4fWO-41">
          <mxGeometry x="80" y="150" width="140" height="30" as="geometry" />
        </mxCell>
        <mxCell id="M6c7fhZQipC6nJDo4fWO-42" value="" style="group" vertex="1" connectable="0" parent="1">
          <mxGeometry x="520" y="570" width="250" height="190" as="geometry" />
        </mxCell>
        <mxCell id="M6c7fhZQipC6nJDo4fWO-43" value="Cell" style="shape=table;startSize=30;container=1;collapsible=1;childLayout=tableLayout;fixedRows=1;rowLines=0;fontStyle=1;align=center;resizeLast=1;" vertex="1" collapsed="1" parent="M6c7fhZQipC6nJDo4fWO-42">
          <mxGeometry width="50" height="30" as="geometry">
            <mxRectangle width="250" height="190" as="alternateBounds" />
          </mxGeometry>
        </mxCell>
        <mxCell id="M6c7fhZQipC6nJDo4fWO-44" value="" style="shape=partialRectangle;collapsible=0;dropTarget=0;pointerEvents=0;fillColor=none;top=0;left=0;bottom=1;right=0;points=[[0,0.5],[1,0.5]];portConstraint=eastwest;" vertex="1" parent="M6c7fhZQipC6nJDo4fWO-43">
          <mxGeometry y="30" width="250" height="30" as="geometry" />
        </mxCell>
        <mxCell id="M6c7fhZQipC6nJDo4fWO-45" value="type" style="shape=partialRectangle;connectable=0;fillColor=none;top=0;left=0;bottom=0;right=0;fontStyle=1;overflow=hidden;" vertex="1" parent="M6c7fhZQipC6nJDo4fWO-44">
          <mxGeometry width="70" height="30" as="geometry" />
        </mxCell>
        <mxCell id="M6c7fhZQipC6nJDo4fWO-46" value="name" style="shape=partialRectangle;connectable=0;fillColor=none;top=0;left=0;bottom=0;right=0;align=left;spacingLeft=6;fontStyle=1;overflow=hidden;" vertex="1" parent="M6c7fhZQipC6nJDo4fWO-44">
          <mxGeometry x="70" width="180" height="30" as="geometry" />
        </mxCell>
        <mxCell id="M6c7fhZQipC6nJDo4fWO-47" value="" style="shape=partialRectangle;collapsible=0;dropTarget=0;pointerEvents=0;fillColor=none;top=0;left=0;bottom=0;right=0;points=[[0,0.5],[1,0.5]];portConstraint=eastwest;" vertex="1" parent="M6c7fhZQipC6nJDo4fWO-43">
          <mxGeometry y="60" width="250" height="30" as="geometry" />
        </mxCell>
        <mxCell id="M6c7fhZQipC6nJDo4fWO-48" value="df" style="shape=partialRectangle;connectable=0;fillColor=none;top=0;left=0;bottom=0;right=0;editable=1;overflow=hidden;" vertex="1" parent="M6c7fhZQipC6nJDo4fWO-47">
          <mxGeometry width="70" height="30" as="geometry" />
        </mxCell>
        <mxCell id="M6c7fhZQipC6nJDo4fWO-49" value="raw" style="shape=partialRectangle;connectable=0;fillColor=none;top=0;left=0;bottom=0;right=0;align=left;spacingLeft=6;overflow=hidden;" vertex="1" parent="M6c7fhZQipC6nJDo4fWO-47">
          <mxGeometry x="70" width="180" height="30" as="geometry" />
        </mxCell>
        <mxCell id="M6c7fhZQipC6nJDo4fWO-50" value="" style="shape=partialRectangle;collapsible=0;dropTarget=0;pointerEvents=0;fillColor=none;top=0;left=0;bottom=0;right=0;points=[[0,0.5],[1,0.5]];portConstraint=eastwest;" vertex="1" parent="M6c7fhZQipC6nJDo4fWO-43">
          <mxGeometry y="90" width="250" height="30" as="geometry" />
        </mxCell>
        <mxCell id="M6c7fhZQipC6nJDo4fWO-51" value="df" style="shape=partialRectangle;connectable=0;fillColor=none;top=0;left=0;bottom=0;right=0;editable=1;overflow=hidden;" vertex="1" parent="M6c7fhZQipC6nJDo4fWO-50">
          <mxGeometry width="70" height="30" as="geometry" />
        </mxCell>
        <mxCell id="M6c7fhZQipC6nJDo4fWO-52" value="summary" style="shape=partialRectangle;connectable=0;fillColor=none;top=0;left=0;bottom=0;right=0;align=left;spacingLeft=6;overflow=hidden;" vertex="1" parent="M6c7fhZQipC6nJDo4fWO-50">
          <mxGeometry x="70" width="180" height="30" as="geometry" />
        </mxCell>
        <mxCell id="M6c7fhZQipC6nJDo4fWO-53" value="" style="shape=partialRectangle;collapsible=0;dropTarget=0;pointerEvents=0;fillColor=none;top=0;left=0;bottom=0;right=0;points=[[0,0.5],[1,0.5]];portConstraint=eastwest;" vertex="1" parent="M6c7fhZQipC6nJDo4fWO-43">
          <mxGeometry y="120" width="250" height="30" as="geometry" />
        </mxCell>
        <mxCell id="M6c7fhZQipC6nJDo4fWO-54" value="df" style="shape=partialRectangle;connectable=0;fillColor=none;top=0;left=0;bottom=0;right=0;editable=1;overflow=hidden;" vertex="1" parent="M6c7fhZQipC6nJDo4fWO-53">
          <mxGeometry width="70" height="30" as="geometry" />
        </mxCell>
        <mxCell id="M6c7fhZQipC6nJDo4fWO-55" value="steps" style="shape=partialRectangle;connectable=0;fillColor=none;top=0;left=0;bottom=0;right=0;align=left;spacingLeft=6;overflow=hidden;" vertex="1" parent="M6c7fhZQipC6nJDo4fWO-53">
          <mxGeometry x="70" width="180" height="30" as="geometry" />
        </mxCell>
        <mxCell id="M6c7fhZQipC6nJDo4fWO-57" style="edgeStyle=orthogonalEdgeStyle;rounded=0;orthogonalLoop=1;jettySize=auto;html=1;exitX=1;exitY=0.5;exitDx=0;exitDy=0;entryX=0.5;entryY=0;entryDx=0;entryDy=0;" edge="1" parent="1" source="M6c7fhZQipC6nJDo4fWO-24" target="M6c7fhZQipC6nJDo4fWO-38">
          <mxGeometry relative="1" as="geometry" />
        </mxCell>
        <mxCell id="M6c7fhZQipC6nJDo4fWO-58" style="edgeStyle=orthogonalEdgeStyle;rounded=0;orthogonalLoop=1;jettySize=auto;html=1;entryX=0.04;entryY=0.053;entryDx=0;entryDy=0;entryPerimeter=0;" edge="1" parent="1" source="M6c7fhZQipC6nJDo4fWO-27" target="M6c7fhZQipC6nJDo4fWO-7">
          <mxGeometry relative="1" as="geometry" />
        </mxCell>
        <mxCell id="M6c7fhZQipC6nJDo4fWO-59" value="Cell" style="shape=table;startSize=30;container=1;collapsible=1;childLayout=tableLayout;fixedRows=1;rowLines=0;fontStyle=1;align=center;resizeLast=1;" vertex="1" collapsed="1" parent="1">
          <mxGeometry x="530" y="580" width="50" height="30" as="geometry">
            <mxRectangle width="250" height="190" as="alternateBounds" />
          </mxGeometry>
        </mxCell>
        <mxCell id="M6c7fhZQipC6nJDo4fWO-60" value="" style="shape=partialRectangle;collapsible=0;dropTarget=0;pointerEvents=0;fillColor=none;top=0;left=0;bottom=1;right=0;points=[[0,0.5],[1,0.5]];portConstraint=eastwest;" vertex="1" parent="M6c7fhZQipC6nJDo4fWO-59">
          <mxGeometry y="30" width="250" height="30" as="geometry" />
        </mxCell>
        <mxCell id="M6c7fhZQipC6nJDo4fWO-61" value="type" style="shape=partialRectangle;connectable=0;fillColor=none;top=0;left=0;bottom=0;right=0;fontStyle=1;overflow=hidden;" vertex="1" parent="M6c7fhZQipC6nJDo4fWO-60">
          <mxGeometry width="70" height="30" as="geometry" />
        </mxCell>
        <mxCell id="M6c7fhZQipC6nJDo4fWO-62" value="name" style="shape=partialRectangle;connectable=0;fillColor=none;top=0;left=0;bottom=0;right=0;align=left;spacingLeft=6;fontStyle=1;overflow=hidden;" vertex="1" parent="M6c7fhZQipC6nJDo4fWO-60">
          <mxGeometry x="70" width="180" height="30" as="geometry" />
        </mxCell>
        <mxCell id="M6c7fhZQipC6nJDo4fWO-63" value="" style="shape=partialRectangle;collapsible=0;dropTarget=0;pointerEvents=0;fillColor=none;top=0;left=0;bottom=0;right=0;points=[[0,0.5],[1,0.5]];portConstraint=eastwest;" vertex="1" parent="M6c7fhZQipC6nJDo4fWO-59">
          <mxGeometry y="60" width="250" height="30" as="geometry" />
        </mxCell>
        <mxCell id="M6c7fhZQipC6nJDo4fWO-64" value="df" style="shape=partialRectangle;connectable=0;fillColor=none;top=0;left=0;bottom=0;right=0;editable=1;overflow=hidden;" vertex="1" parent="M6c7fhZQipC6nJDo4fWO-63">
          <mxGeometry width="70" height="30" as="geometry" />
        </mxCell>
        <mxCell id="M6c7fhZQipC6nJDo4fWO-65" value="raw" style="shape=partialRectangle;connectable=0;fillColor=none;top=0;left=0;bottom=0;right=0;align=left;spacingLeft=6;overflow=hidden;" vertex="1" parent="M6c7fhZQipC6nJDo4fWO-63">
          <mxGeometry x="70" width="180" height="30" as="geometry" />
        </mxCell>
        <mxCell id="M6c7fhZQipC6nJDo4fWO-66" value="" style="shape=partialRectangle;collapsible=0;dropTarget=0;pointerEvents=0;fillColor=none;top=0;left=0;bottom=0;right=0;points=[[0,0.5],[1,0.5]];portConstraint=eastwest;" vertex="1" parent="M6c7fhZQipC6nJDo4fWO-59">
          <mxGeometry y="90" width="250" height="30" as="geometry" />
        </mxCell>
        <mxCell id="M6c7fhZQipC6nJDo4fWO-67" value="df" style="shape=partialRectangle;connectable=0;fillColor=none;top=0;left=0;bottom=0;right=0;editable=1;overflow=hidden;" vertex="1" parent="M6c7fhZQipC6nJDo4fWO-66">
          <mxGeometry width="70" height="30" as="geometry" />
        </mxCell>
        <mxCell id="M6c7fhZQipC6nJDo4fWO-68" value="summary" style="shape=partialRectangle;connectable=0;fillColor=none;top=0;left=0;bottom=0;right=0;align=left;spacingLeft=6;overflow=hidden;" vertex="1" parent="M6c7fhZQipC6nJDo4fWO-66">
          <mxGeometry x="70" width="180" height="30" as="geometry" />
        </mxCell>
        <mxCell id="M6c7fhZQipC6nJDo4fWO-69" value="" style="shape=partialRectangle;collapsible=0;dropTarget=0;pointerEvents=0;fillColor=none;top=0;left=0;bottom=0;right=0;points=[[0,0.5],[1,0.5]];portConstraint=eastwest;" vertex="1" parent="M6c7fhZQipC6nJDo4fWO-59">
          <mxGeometry y="120" width="250" height="30" as="geometry" />
        </mxCell>
        <mxCell id="M6c7fhZQipC6nJDo4fWO-70" value="df" style="shape=partialRectangle;connectable=0;fillColor=none;top=0;left=0;bottom=0;right=0;editable=1;overflow=hidden;" vertex="1" parent="M6c7fhZQipC6nJDo4fWO-69">
          <mxGeometry width="70" height="30" as="geometry" />
        </mxCell>
        <mxCell id="M6c7fhZQipC6nJDo4fWO-71" value="steps" style="shape=partialRectangle;connectable=0;fillColor=none;top=0;left=0;bottom=0;right=0;align=left;spacingLeft=6;overflow=hidden;" vertex="1" parent="M6c7fhZQipC6nJDo4fWO-69">
          <mxGeometry x="70" width="180" height="30" as="geometry" />
        </mxCell>
        <mxCell id="M6c7fhZQipC6nJDo4fWO-72" value="Cell" style="shape=table;startSize=30;container=1;collapsible=1;childLayout=tableLayout;fixedRows=1;rowLines=0;fontStyle=1;align=center;resizeLast=1;" vertex="1" collapsed="1" parent="1">
          <mxGeometry x="540" y="590" width="50" height="30" as="geometry">
            <mxRectangle width="250" height="190" as="alternateBounds" />
          </mxGeometry>
        </mxCell>
        <mxCell id="M6c7fhZQipC6nJDo4fWO-73" value="" style="shape=partialRectangle;collapsible=0;dropTarget=0;pointerEvents=0;fillColor=none;top=0;left=0;bottom=1;right=0;points=[[0,0.5],[1,0.5]];portConstraint=eastwest;" vertex="1" parent="M6c7fhZQipC6nJDo4fWO-72">
          <mxGeometry y="30" width="250" height="30" as="geometry" />
        </mxCell>
        <mxCell id="M6c7fhZQipC6nJDo4fWO-74" value="type" style="shape=partialRectangle;connectable=0;fillColor=none;top=0;left=0;bottom=0;right=0;fontStyle=1;overflow=hidden;" vertex="1" parent="M6c7fhZQipC6nJDo4fWO-73">
          <mxGeometry width="70" height="30" as="geometry" />
        </mxCell>
        <mxCell id="M6c7fhZQipC6nJDo4fWO-75" value="name" style="shape=partialRectangle;connectable=0;fillColor=none;top=0;left=0;bottom=0;right=0;align=left;spacingLeft=6;fontStyle=1;overflow=hidden;" vertex="1" parent="M6c7fhZQipC6nJDo4fWO-73">
          <mxGeometry x="70" width="180" height="30" as="geometry" />
        </mxCell>
        <mxCell id="M6c7fhZQipC6nJDo4fWO-76" value="" style="shape=partialRectangle;collapsible=0;dropTarget=0;pointerEvents=0;fillColor=none;top=0;left=0;bottom=0;right=0;points=[[0,0.5],[1,0.5]];portConstraint=eastwest;" vertex="1" parent="M6c7fhZQipC6nJDo4fWO-72">
          <mxGeometry y="60" width="250" height="30" as="geometry" />
        </mxCell>
        <mxCell id="M6c7fhZQipC6nJDo4fWO-77" value="df" style="shape=partialRectangle;connectable=0;fillColor=none;top=0;left=0;bottom=0;right=0;editable=1;overflow=hidden;" vertex="1" parent="M6c7fhZQipC6nJDo4fWO-76">
          <mxGeometry width="70" height="30" as="geometry" />
        </mxCell>
        <mxCell id="M6c7fhZQipC6nJDo4fWO-78" value="raw" style="shape=partialRectangle;connectable=0;fillColor=none;top=0;left=0;bottom=0;right=0;align=left;spacingLeft=6;overflow=hidden;" vertex="1" parent="M6c7fhZQipC6nJDo4fWO-76">
          <mxGeometry x="70" width="180" height="30" as="geometry" />
        </mxCell>
        <mxCell id="M6c7fhZQipC6nJDo4fWO-79" value="" style="shape=partialRectangle;collapsible=0;dropTarget=0;pointerEvents=0;fillColor=none;top=0;left=0;bottom=0;right=0;points=[[0,0.5],[1,0.5]];portConstraint=eastwest;" vertex="1" parent="M6c7fhZQipC6nJDo4fWO-72">
          <mxGeometry y="90" width="250" height="30" as="geometry" />
        </mxCell>
        <mxCell id="M6c7fhZQipC6nJDo4fWO-80" value="df" style="shape=partialRectangle;connectable=0;fillColor=none;top=0;left=0;bottom=0;right=0;editable=1;overflow=hidden;" vertex="1" parent="M6c7fhZQipC6nJDo4fWO-79">
          <mxGeometry width="70" height="30" as="geometry" />
        </mxCell>
        <mxCell id="M6c7fhZQipC6nJDo4fWO-81" value="summary" style="shape=partialRectangle;connectable=0;fillColor=none;top=0;left=0;bottom=0;right=0;align=left;spacingLeft=6;overflow=hidden;" vertex="1" parent="M6c7fhZQipC6nJDo4fWO-79">
          <mxGeometry x="70" width="180" height="30" as="geometry" />
        </mxCell>
        <mxCell id="M6c7fhZQipC6nJDo4fWO-82" value="" style="shape=partialRectangle;collapsible=0;dropTarget=0;pointerEvents=0;fillColor=none;top=0;left=0;bottom=0;right=0;points=[[0,0.5],[1,0.5]];portConstraint=eastwest;" vertex="1" parent="M6c7fhZQipC6nJDo4fWO-72">
          <mxGeometry y="120" width="250" height="30" as="geometry" />
        </mxCell>
        <mxCell id="M6c7fhZQipC6nJDo4fWO-83" value="df" style="shape=partialRectangle;connectable=0;fillColor=none;top=0;left=0;bottom=0;right=0;editable=1;overflow=hidden;" vertex="1" parent="M6c7fhZQipC6nJDo4fWO-82">
          <mxGeometry width="70" height="30" as="geometry" />
        </mxCell>
        <mxCell id="M6c7fhZQipC6nJDo4fWO-84" value="steps" style="shape=partialRectangle;connectable=0;fillColor=none;top=0;left=0;bottom=0;right=0;align=left;spacingLeft=6;overflow=hidden;" vertex="1" parent="M6c7fhZQipC6nJDo4fWO-82">
          <mxGeometry x="70" width="180" height="30" as="geometry" />
        </mxCell>
        <mxCell id="M6c7fhZQipC6nJDo4fWO-85" value="Cell" style="shape=table;startSize=30;container=1;collapsible=1;childLayout=tableLayout;fixedRows=1;rowLines=0;fontStyle=1;align=center;resizeLast=1;" vertex="1" collapsed="1" parent="1">
          <mxGeometry x="550" y="600" width="50" height="30" as="geometry">
            <mxRectangle width="250" height="190" as="alternateBounds" />
          </mxGeometry>
        </mxCell>
        <mxCell id="M6c7fhZQipC6nJDo4fWO-86" value="" style="shape=partialRectangle;collapsible=0;dropTarget=0;pointerEvents=0;fillColor=none;top=0;left=0;bottom=1;right=0;points=[[0,0.5],[1,0.5]];portConstraint=eastwest;" vertex="1" parent="M6c7fhZQipC6nJDo4fWO-85">
          <mxGeometry y="30" width="250" height="30" as="geometry" />
        </mxCell>
        <mxCell id="M6c7fhZQipC6nJDo4fWO-87" value="type" style="shape=partialRectangle;connectable=0;fillColor=none;top=0;left=0;bottom=0;right=0;fontStyle=1;overflow=hidden;" vertex="1" parent="M6c7fhZQipC6nJDo4fWO-86">
          <mxGeometry width="70" height="30" as="geometry" />
        </mxCell>
        <mxCell id="M6c7fhZQipC6nJDo4fWO-88" value="name" style="shape=partialRectangle;connectable=0;fillColor=none;top=0;left=0;bottom=0;right=0;align=left;spacingLeft=6;fontStyle=1;overflow=hidden;" vertex="1" parent="M6c7fhZQipC6nJDo4fWO-86">
          <mxGeometry x="70" width="180" height="30" as="geometry" />
        </mxCell>
        <mxCell id="M6c7fhZQipC6nJDo4fWO-89" value="" style="shape=partialRectangle;collapsible=0;dropTarget=0;pointerEvents=0;fillColor=none;top=0;left=0;bottom=0;right=0;points=[[0,0.5],[1,0.5]];portConstraint=eastwest;" vertex="1" parent="M6c7fhZQipC6nJDo4fWO-85">
          <mxGeometry y="60" width="250" height="30" as="geometry" />
        </mxCell>
        <mxCell id="M6c7fhZQipC6nJDo4fWO-90" value="df" style="shape=partialRectangle;connectable=0;fillColor=none;top=0;left=0;bottom=0;right=0;editable=1;overflow=hidden;" vertex="1" parent="M6c7fhZQipC6nJDo4fWO-89">
          <mxGeometry width="70" height="30" as="geometry" />
        </mxCell>
        <mxCell id="M6c7fhZQipC6nJDo4fWO-91" value="raw" style="shape=partialRectangle;connectable=0;fillColor=none;top=0;left=0;bottom=0;right=0;align=left;spacingLeft=6;overflow=hidden;" vertex="1" parent="M6c7fhZQipC6nJDo4fWO-89">
          <mxGeometry x="70" width="180" height="30" as="geometry" />
        </mxCell>
        <mxCell id="M6c7fhZQipC6nJDo4fWO-92" value="" style="shape=partialRectangle;collapsible=0;dropTarget=0;pointerEvents=0;fillColor=none;top=0;left=0;bottom=0;right=0;points=[[0,0.5],[1,0.5]];portConstraint=eastwest;" vertex="1" parent="M6c7fhZQipC6nJDo4fWO-85">
          <mxGeometry y="90" width="250" height="30" as="geometry" />
        </mxCell>
        <mxCell id="M6c7fhZQipC6nJDo4fWO-93" value="df" style="shape=partialRectangle;connectable=0;fillColor=none;top=0;left=0;bottom=0;right=0;editable=1;overflow=hidden;" vertex="1" parent="M6c7fhZQipC6nJDo4fWO-92">
          <mxGeometry width="70" height="30" as="geometry" />
        </mxCell>
        <mxCell id="M6c7fhZQipC6nJDo4fWO-94" value="summary" style="shape=partialRectangle;connectable=0;fillColor=none;top=0;left=0;bottom=0;right=0;align=left;spacingLeft=6;overflow=hidden;" vertex="1" parent="M6c7fhZQipC6nJDo4fWO-92">
          <mxGeometry x="70" width="180" height="30" as="geometry" />
        </mxCell>
        <mxCell id="M6c7fhZQipC6nJDo4fWO-95" value="" style="shape=partialRectangle;collapsible=0;dropTarget=0;pointerEvents=0;fillColor=none;top=0;left=0;bottom=0;right=0;points=[[0,0.5],[1,0.5]];portConstraint=eastwest;" vertex="1" parent="M6c7fhZQipC6nJDo4fWO-85">
          <mxGeometry y="120" width="250" height="30" as="geometry" />
        </mxCell>
        <mxCell id="M6c7fhZQipC6nJDo4fWO-96" value="df" style="shape=partialRectangle;connectable=0;fillColor=none;top=0;left=0;bottom=0;right=0;editable=1;overflow=hidden;" vertex="1" parent="M6c7fhZQipC6nJDo4fWO-95">
          <mxGeometry width="70" height="30" as="geometry" />
        </mxCell>
        <mxCell id="M6c7fhZQipC6nJDo4fWO-97" value="steps" style="shape=partialRectangle;connectable=0;fillColor=none;top=0;left=0;bottom=0;right=0;align=left;spacingLeft=6;overflow=hidden;" vertex="1" parent="M6c7fhZQipC6nJDo4fWO-95">
          <mxGeometry x="70" width="180" height="30" as="geometry" />
        </mxCell>
        <mxCell id="M6c7fhZQipC6nJDo4fWO-98" value="Cell" style="shape=table;startSize=30;container=1;collapsible=1;childLayout=tableLayout;fixedRows=1;rowLines=0;fontStyle=1;align=center;resizeLast=1;" vertex="1" collapsed="1" parent="1">
          <mxGeometry x="560" y="610" width="50" height="30" as="geometry">
            <mxRectangle width="250" height="190" as="alternateBounds" />
          </mxGeometry>
        </mxCell>
        <mxCell id="M6c7fhZQipC6nJDo4fWO-99" value="" style="shape=partialRectangle;collapsible=0;dropTarget=0;pointerEvents=0;fillColor=none;top=0;left=0;bottom=1;right=0;points=[[0,0.5],[1,0.5]];portConstraint=eastwest;" vertex="1" parent="M6c7fhZQipC6nJDo4fWO-98">
          <mxGeometry y="30" width="250" height="30" as="geometry" />
        </mxCell>
        <mxCell id="M6c7fhZQipC6nJDo4fWO-100" value="type" style="shape=partialRectangle;connectable=0;fillColor=none;top=0;left=0;bottom=0;right=0;fontStyle=1;overflow=hidden;" vertex="1" parent="M6c7fhZQipC6nJDo4fWO-99">
          <mxGeometry width="70" height="30" as="geometry" />
        </mxCell>
        <mxCell id="M6c7fhZQipC6nJDo4fWO-101" value="name" style="shape=partialRectangle;connectable=0;fillColor=none;top=0;left=0;bottom=0;right=0;align=left;spacingLeft=6;fontStyle=1;overflow=hidden;" vertex="1" parent="M6c7fhZQipC6nJDo4fWO-99">
          <mxGeometry x="70" width="180" height="30" as="geometry" />
        </mxCell>
        <mxCell id="M6c7fhZQipC6nJDo4fWO-102" value="" style="shape=partialRectangle;collapsible=0;dropTarget=0;pointerEvents=0;fillColor=none;top=0;left=0;bottom=0;right=0;points=[[0,0.5],[1,0.5]];portConstraint=eastwest;" vertex="1" parent="M6c7fhZQipC6nJDo4fWO-98">
          <mxGeometry y="60" width="250" height="30" as="geometry" />
        </mxCell>
        <mxCell id="M6c7fhZQipC6nJDo4fWO-103" value="df" style="shape=partialRectangle;connectable=0;fillColor=none;top=0;left=0;bottom=0;right=0;editable=1;overflow=hidden;" vertex="1" parent="M6c7fhZQipC6nJDo4fWO-102">
          <mxGeometry width="70" height="30" as="geometry" />
        </mxCell>
        <mxCell id="M6c7fhZQipC6nJDo4fWO-104" value="raw" style="shape=partialRectangle;connectable=0;fillColor=none;top=0;left=0;bottom=0;right=0;align=left;spacingLeft=6;overflow=hidden;" vertex="1" parent="M6c7fhZQipC6nJDo4fWO-102">
          <mxGeometry x="70" width="180" height="30" as="geometry" />
        </mxCell>
        <mxCell id="M6c7fhZQipC6nJDo4fWO-105" value="" style="shape=partialRectangle;collapsible=0;dropTarget=0;pointerEvents=0;fillColor=none;top=0;left=0;bottom=0;right=0;points=[[0,0.5],[1,0.5]];portConstraint=eastwest;" vertex="1" parent="M6c7fhZQipC6nJDo4fWO-98">
          <mxGeometry y="90" width="250" height="30" as="geometry" />
        </mxCell>
        <mxCell id="M6c7fhZQipC6nJDo4fWO-106" value="df" style="shape=partialRectangle;connectable=0;fillColor=none;top=0;left=0;bottom=0;right=0;editable=1;overflow=hidden;" vertex="1" parent="M6c7fhZQipC6nJDo4fWO-105">
          <mxGeometry width="70" height="30" as="geometry" />
        </mxCell>
        <mxCell id="M6c7fhZQipC6nJDo4fWO-107" value="summary" style="shape=partialRectangle;connectable=0;fillColor=none;top=0;left=0;bottom=0;right=0;align=left;spacingLeft=6;overflow=hidden;" vertex="1" parent="M6c7fhZQipC6nJDo4fWO-105">
          <mxGeometry x="70" width="180" height="30" as="geometry" />
        </mxCell>
        <mxCell id="M6c7fhZQipC6nJDo4fWO-108" value="" style="shape=partialRectangle;collapsible=0;dropTarget=0;pointerEvents=0;fillColor=none;top=0;left=0;bottom=0;right=0;points=[[0,0.5],[1,0.5]];portConstraint=eastwest;" vertex="1" parent="M6c7fhZQipC6nJDo4fWO-98">
          <mxGeometry y="120" width="250" height="30" as="geometry" />
        </mxCell>
        <mxCell id="M6c7fhZQipC6nJDo4fWO-109" value="df" style="shape=partialRectangle;connectable=0;fillColor=none;top=0;left=0;bottom=0;right=0;editable=1;overflow=hidden;" vertex="1" parent="M6c7fhZQipC6nJDo4fWO-108">
          <mxGeometry width="70" height="30" as="geometry" />
        </mxCell>
        <mxCell id="M6c7fhZQipC6nJDo4fWO-110" value="steps" style="shape=partialRectangle;connectable=0;fillColor=none;top=0;left=0;bottom=0;right=0;align=left;spacingLeft=6;overflow=hidden;" vertex="1" parent="M6c7fhZQipC6nJDo4fWO-108">
          <mxGeometry x="70" width="180" height="30" as="geometry" />
        </mxCell>
        <mxCell id="M6c7fhZQipC6nJDo4fWO-111" value="Cell" style="shape=table;startSize=30;container=1;collapsible=1;childLayout=tableLayout;fixedRows=1;rowLines=0;fontStyle=1;align=center;resizeLast=1;" vertex="1" collapsed="1" parent="1">
          <mxGeometry x="570" y="620" width="50" height="30" as="geometry">
            <mxRectangle width="250" height="190" as="alternateBounds" />
          </mxGeometry>
        </mxCell>
        <mxCell id="M6c7fhZQipC6nJDo4fWO-112" value="" style="shape=partialRectangle;collapsible=0;dropTarget=0;pointerEvents=0;fillColor=none;top=0;left=0;bottom=1;right=0;points=[[0,0.5],[1,0.5]];portConstraint=eastwest;" vertex="1" parent="M6c7fhZQipC6nJDo4fWO-111">
          <mxGeometry y="30" width="250" height="30" as="geometry" />
        </mxCell>
        <mxCell id="M6c7fhZQipC6nJDo4fWO-113" value="type" style="shape=partialRectangle;connectable=0;fillColor=none;top=0;left=0;bottom=0;right=0;fontStyle=1;overflow=hidden;" vertex="1" parent="M6c7fhZQipC6nJDo4fWO-112">
          <mxGeometry width="70" height="30" as="geometry" />
        </mxCell>
        <mxCell id="M6c7fhZQipC6nJDo4fWO-114" value="name" style="shape=partialRectangle;connectable=0;fillColor=none;top=0;left=0;bottom=0;right=0;align=left;spacingLeft=6;fontStyle=1;overflow=hidden;" vertex="1" parent="M6c7fhZQipC6nJDo4fWO-112">
          <mxGeometry x="70" width="180" height="30" as="geometry" />
        </mxCell>
        <mxCell id="M6c7fhZQipC6nJDo4fWO-115" value="" style="shape=partialRectangle;collapsible=0;dropTarget=0;pointerEvents=0;fillColor=none;top=0;left=0;bottom=0;right=0;points=[[0,0.5],[1,0.5]];portConstraint=eastwest;" vertex="1" parent="M6c7fhZQipC6nJDo4fWO-111">
          <mxGeometry y="60" width="250" height="30" as="geometry" />
        </mxCell>
        <mxCell id="M6c7fhZQipC6nJDo4fWO-116" value="df" style="shape=partialRectangle;connectable=0;fillColor=none;top=0;left=0;bottom=0;right=0;editable=1;overflow=hidden;" vertex="1" parent="M6c7fhZQipC6nJDo4fWO-115">
          <mxGeometry width="70" height="30" as="geometry" />
        </mxCell>
        <mxCell id="M6c7fhZQipC6nJDo4fWO-117" value="raw" style="shape=partialRectangle;connectable=0;fillColor=none;top=0;left=0;bottom=0;right=0;align=left;spacingLeft=6;overflow=hidden;" vertex="1" parent="M6c7fhZQipC6nJDo4fWO-115">
          <mxGeometry x="70" width="180" height="30" as="geometry" />
        </mxCell>
        <mxCell id="M6c7fhZQipC6nJDo4fWO-118" value="" style="shape=partialRectangle;collapsible=0;dropTarget=0;pointerEvents=0;fillColor=none;top=0;left=0;bottom=0;right=0;points=[[0,0.5],[1,0.5]];portConstraint=eastwest;" vertex="1" parent="M6c7fhZQipC6nJDo4fWO-111">
          <mxGeometry y="90" width="250" height="30" as="geometry" />
        </mxCell>
        <mxCell id="M6c7fhZQipC6nJDo4fWO-119" value="df" style="shape=partialRectangle;connectable=0;fillColor=none;top=0;left=0;bottom=0;right=0;editable=1;overflow=hidden;" vertex="1" parent="M6c7fhZQipC6nJDo4fWO-118">
          <mxGeometry width="70" height="30" as="geometry" />
        </mxCell>
        <mxCell id="M6c7fhZQipC6nJDo4fWO-120" value="summary" style="shape=partialRectangle;connectable=0;fillColor=none;top=0;left=0;bottom=0;right=0;align=left;spacingLeft=6;overflow=hidden;" vertex="1" parent="M6c7fhZQipC6nJDo4fWO-118">
          <mxGeometry x="70" width="180" height="30" as="geometry" />
        </mxCell>
        <mxCell id="M6c7fhZQipC6nJDo4fWO-121" value="" style="shape=partialRectangle;collapsible=0;dropTarget=0;pointerEvents=0;fillColor=none;top=0;left=0;bottom=0;right=0;points=[[0,0.5],[1,0.5]];portConstraint=eastwest;" vertex="1" parent="M6c7fhZQipC6nJDo4fWO-111">
          <mxGeometry y="120" width="250" height="30" as="geometry" />
        </mxCell>
        <mxCell id="M6c7fhZQipC6nJDo4fWO-122" value="df" style="shape=partialRectangle;connectable=0;fillColor=none;top=0;left=0;bottom=0;right=0;editable=1;overflow=hidden;" vertex="1" parent="M6c7fhZQipC6nJDo4fWO-121">
          <mxGeometry width="70" height="30" as="geometry" />
        </mxCell>
        <mxCell id="M6c7fhZQipC6nJDo4fWO-123" value="steps" style="shape=partialRectangle;connectable=0;fillColor=none;top=0;left=0;bottom=0;right=0;align=left;spacingLeft=6;overflow=hidden;" vertex="1" parent="M6c7fhZQipC6nJDo4fWO-121">
          <mxGeometry x="70" width="180" height="30" as="geometry" />
        </mxCell>
        <mxCell id="M6c7fhZQipC6nJDo4fWO-124" value="Cell" style="shape=table;startSize=30;container=1;collapsible=1;childLayout=tableLayout;fixedRows=1;rowLines=0;fontStyle=1;align=center;resizeLast=1;" vertex="1" collapsed="1" parent="1">
          <mxGeometry x="580" y="630" width="50" height="30" as="geometry">
            <mxRectangle width="250" height="190" as="alternateBounds" />
          </mxGeometry>
        </mxCell>
        <mxCell id="M6c7fhZQipC6nJDo4fWO-125" value="" style="shape=partialRectangle;collapsible=0;dropTarget=0;pointerEvents=0;fillColor=none;top=0;left=0;bottom=1;right=0;points=[[0,0.5],[1,0.5]];portConstraint=eastwest;" vertex="1" parent="M6c7fhZQipC6nJDo4fWO-124">
          <mxGeometry y="30" width="250" height="30" as="geometry" />
        </mxCell>
        <mxCell id="M6c7fhZQipC6nJDo4fWO-126" value="type" style="shape=partialRectangle;connectable=0;fillColor=none;top=0;left=0;bottom=0;right=0;fontStyle=1;overflow=hidden;" vertex="1" parent="M6c7fhZQipC6nJDo4fWO-125">
          <mxGeometry width="70" height="30" as="geometry" />
        </mxCell>
        <mxCell id="M6c7fhZQipC6nJDo4fWO-127" value="name" style="shape=partialRectangle;connectable=0;fillColor=none;top=0;left=0;bottom=0;right=0;align=left;spacingLeft=6;fontStyle=1;overflow=hidden;" vertex="1" parent="M6c7fhZQipC6nJDo4fWO-125">
          <mxGeometry x="70" width="180" height="30" as="geometry" />
        </mxCell>
        <mxCell id="M6c7fhZQipC6nJDo4fWO-128" value="" style="shape=partialRectangle;collapsible=0;dropTarget=0;pointerEvents=0;fillColor=none;top=0;left=0;bottom=0;right=0;points=[[0,0.5],[1,0.5]];portConstraint=eastwest;" vertex="1" parent="M6c7fhZQipC6nJDo4fWO-124">
          <mxGeometry y="60" width="250" height="30" as="geometry" />
        </mxCell>
        <mxCell id="M6c7fhZQipC6nJDo4fWO-129" value="df" style="shape=partialRectangle;connectable=0;fillColor=none;top=0;left=0;bottom=0;right=0;editable=1;overflow=hidden;" vertex="1" parent="M6c7fhZQipC6nJDo4fWO-128">
          <mxGeometry width="70" height="30" as="geometry" />
        </mxCell>
        <mxCell id="M6c7fhZQipC6nJDo4fWO-130" value="raw" style="shape=partialRectangle;connectable=0;fillColor=none;top=0;left=0;bottom=0;right=0;align=left;spacingLeft=6;overflow=hidden;" vertex="1" parent="M6c7fhZQipC6nJDo4fWO-128">
          <mxGeometry x="70" width="180" height="30" as="geometry" />
        </mxCell>
        <mxCell id="M6c7fhZQipC6nJDo4fWO-131" value="" style="shape=partialRectangle;collapsible=0;dropTarget=0;pointerEvents=0;fillColor=none;top=0;left=0;bottom=0;right=0;points=[[0,0.5],[1,0.5]];portConstraint=eastwest;" vertex="1" parent="M6c7fhZQipC6nJDo4fWO-124">
          <mxGeometry y="90" width="250" height="30" as="geometry" />
        </mxCell>
        <mxCell id="M6c7fhZQipC6nJDo4fWO-132" value="df" style="shape=partialRectangle;connectable=0;fillColor=none;top=0;left=0;bottom=0;right=0;editable=1;overflow=hidden;" vertex="1" parent="M6c7fhZQipC6nJDo4fWO-131">
          <mxGeometry width="70" height="30" as="geometry" />
        </mxCell>
        <mxCell id="M6c7fhZQipC6nJDo4fWO-133" value="summary" style="shape=partialRectangle;connectable=0;fillColor=none;top=0;left=0;bottom=0;right=0;align=left;spacingLeft=6;overflow=hidden;" vertex="1" parent="M6c7fhZQipC6nJDo4fWO-131">
          <mxGeometry x="70" width="180" height="30" as="geometry" />
        </mxCell>
        <mxCell id="M6c7fhZQipC6nJDo4fWO-134" value="" style="shape=partialRectangle;collapsible=0;dropTarget=0;pointerEvents=0;fillColor=none;top=0;left=0;bottom=0;right=0;points=[[0,0.5],[1,0.5]];portConstraint=eastwest;" vertex="1" parent="M6c7fhZQipC6nJDo4fWO-124">
          <mxGeometry y="120" width="250" height="30" as="geometry" />
        </mxCell>
        <mxCell id="M6c7fhZQipC6nJDo4fWO-135" value="df" style="shape=partialRectangle;connectable=0;fillColor=none;top=0;left=0;bottom=0;right=0;editable=1;overflow=hidden;" vertex="1" parent="M6c7fhZQipC6nJDo4fWO-134">
          <mxGeometry width="70" height="30" as="geometry" />
        </mxCell>
        <mxCell id="M6c7fhZQipC6nJDo4fWO-136" value="steps" style="shape=partialRectangle;connectable=0;fillColor=none;top=0;left=0;bottom=0;right=0;align=left;spacingLeft=6;overflow=hidden;" vertex="1" parent="M6c7fhZQipC6nJDo4fWO-134">
          <mxGeometry x="70" width="180" height="30" as="geometry" />
        </mxCell>
        <mxCell id="M6c7fhZQipC6nJDo4fWO-137" value="Cell" style="shape=table;startSize=30;container=1;collapsible=1;childLayout=tableLayout;fixedRows=1;rowLines=0;fontStyle=1;align=center;resizeLast=1;" vertex="1" collapsed="1" parent="1">
          <mxGeometry x="590" y="640" width="50" height="30" as="geometry">
            <mxRectangle width="250" height="190" as="alternateBounds" />
          </mxGeometry>
        </mxCell>
        <mxCell id="M6c7fhZQipC6nJDo4fWO-138" value="" style="shape=partialRectangle;collapsible=0;dropTarget=0;pointerEvents=0;fillColor=none;top=0;left=0;bottom=1;right=0;points=[[0,0.5],[1,0.5]];portConstraint=eastwest;" vertex="1" parent="M6c7fhZQipC6nJDo4fWO-137">
          <mxGeometry y="30" width="250" height="30" as="geometry" />
        </mxCell>
        <mxCell id="M6c7fhZQipC6nJDo4fWO-139" value="type" style="shape=partialRectangle;connectable=0;fillColor=none;top=0;left=0;bottom=0;right=0;fontStyle=1;overflow=hidden;" vertex="1" parent="M6c7fhZQipC6nJDo4fWO-138">
          <mxGeometry width="70" height="30" as="geometry" />
        </mxCell>
        <mxCell id="M6c7fhZQipC6nJDo4fWO-140" value="name" style="shape=partialRectangle;connectable=0;fillColor=none;top=0;left=0;bottom=0;right=0;align=left;spacingLeft=6;fontStyle=1;overflow=hidden;" vertex="1" parent="M6c7fhZQipC6nJDo4fWO-138">
          <mxGeometry x="70" width="180" height="30" as="geometry" />
        </mxCell>
        <mxCell id="M6c7fhZQipC6nJDo4fWO-141" value="" style="shape=partialRectangle;collapsible=0;dropTarget=0;pointerEvents=0;fillColor=none;top=0;left=0;bottom=0;right=0;points=[[0,0.5],[1,0.5]];portConstraint=eastwest;" vertex="1" parent="M6c7fhZQipC6nJDo4fWO-137">
          <mxGeometry y="60" width="250" height="30" as="geometry" />
        </mxCell>
        <mxCell id="M6c7fhZQipC6nJDo4fWO-142" value="df" style="shape=partialRectangle;connectable=0;fillColor=none;top=0;left=0;bottom=0;right=0;editable=1;overflow=hidden;" vertex="1" parent="M6c7fhZQipC6nJDo4fWO-141">
          <mxGeometry width="70" height="30" as="geometry" />
        </mxCell>
        <mxCell id="M6c7fhZQipC6nJDo4fWO-143" value="raw" style="shape=partialRectangle;connectable=0;fillColor=none;top=0;left=0;bottom=0;right=0;align=left;spacingLeft=6;overflow=hidden;" vertex="1" parent="M6c7fhZQipC6nJDo4fWO-141">
          <mxGeometry x="70" width="180" height="30" as="geometry" />
        </mxCell>
        <mxCell id="M6c7fhZQipC6nJDo4fWO-144" value="" style="shape=partialRectangle;collapsible=0;dropTarget=0;pointerEvents=0;fillColor=none;top=0;left=0;bottom=0;right=0;points=[[0,0.5],[1,0.5]];portConstraint=eastwest;" vertex="1" parent="M6c7fhZQipC6nJDo4fWO-137">
          <mxGeometry y="90" width="250" height="30" as="geometry" />
        </mxCell>
        <mxCell id="M6c7fhZQipC6nJDo4fWO-145" value="df" style="shape=partialRectangle;connectable=0;fillColor=none;top=0;left=0;bottom=0;right=0;editable=1;overflow=hidden;" vertex="1" parent="M6c7fhZQipC6nJDo4fWO-144">
          <mxGeometry width="70" height="30" as="geometry" />
        </mxCell>
        <mxCell id="M6c7fhZQipC6nJDo4fWO-146" value="summary" style="shape=partialRectangle;connectable=0;fillColor=none;top=0;left=0;bottom=0;right=0;align=left;spacingLeft=6;overflow=hidden;" vertex="1" parent="M6c7fhZQipC6nJDo4fWO-144">
          <mxGeometry x="70" width="180" height="30" as="geometry" />
        </mxCell>
        <mxCell id="M6c7fhZQipC6nJDo4fWO-147" value="" style="shape=partialRectangle;collapsible=0;dropTarget=0;pointerEvents=0;fillColor=none;top=0;left=0;bottom=0;right=0;points=[[0,0.5],[1,0.5]];portConstraint=eastwest;" vertex="1" parent="M6c7fhZQipC6nJDo4fWO-137">
          <mxGeometry y="120" width="250" height="30" as="geometry" />
        </mxCell>
        <mxCell id="M6c7fhZQipC6nJDo4fWO-148" value="df" style="shape=partialRectangle;connectable=0;fillColor=none;top=0;left=0;bottom=0;right=0;editable=1;overflow=hidden;" vertex="1" parent="M6c7fhZQipC6nJDo4fWO-147">
          <mxGeometry width="70" height="30" as="geometry" />
        </mxCell>
        <mxCell id="M6c7fhZQipC6nJDo4fWO-149" value="steps" style="shape=partialRectangle;connectable=0;fillColor=none;top=0;left=0;bottom=0;right=0;align=left;spacingLeft=6;overflow=hidden;" vertex="1" parent="M6c7fhZQipC6nJDo4fWO-147">
          <mxGeometry x="70" width="180" height="30" as="geometry" />
        </mxCell>
        <mxCell id="M6c7fhZQipC6nJDo4fWO-150" value="Cell" style="shape=table;startSize=30;container=1;collapsible=1;childLayout=tableLayout;fixedRows=1;rowLines=0;fontStyle=1;align=center;resizeLast=1;" vertex="1" collapsed="1" parent="1">
          <mxGeometry x="600" y="650" width="50" height="30" as="geometry">
            <mxRectangle width="250" height="190" as="alternateBounds" />
          </mxGeometry>
        </mxCell>
        <mxCell id="M6c7fhZQipC6nJDo4fWO-151" value="" style="shape=partialRectangle;collapsible=0;dropTarget=0;pointerEvents=0;fillColor=none;top=0;left=0;bottom=1;right=0;points=[[0,0.5],[1,0.5]];portConstraint=eastwest;" vertex="1" parent="M6c7fhZQipC6nJDo4fWO-150">
          <mxGeometry y="30" width="250" height="30" as="geometry" />
        </mxCell>
        <mxCell id="M6c7fhZQipC6nJDo4fWO-152" value="type" style="shape=partialRectangle;connectable=0;fillColor=none;top=0;left=0;bottom=0;right=0;fontStyle=1;overflow=hidden;" vertex="1" parent="M6c7fhZQipC6nJDo4fWO-151">
          <mxGeometry width="70" height="30" as="geometry" />
        </mxCell>
        <mxCell id="M6c7fhZQipC6nJDo4fWO-153" value="name" style="shape=partialRectangle;connectable=0;fillColor=none;top=0;left=0;bottom=0;right=0;align=left;spacingLeft=6;fontStyle=1;overflow=hidden;" vertex="1" parent="M6c7fhZQipC6nJDo4fWO-151">
          <mxGeometry x="70" width="180" height="30" as="geometry" />
        </mxCell>
        <mxCell id="M6c7fhZQipC6nJDo4fWO-154" value="" style="shape=partialRectangle;collapsible=0;dropTarget=0;pointerEvents=0;fillColor=none;top=0;left=0;bottom=0;right=0;points=[[0,0.5],[1,0.5]];portConstraint=eastwest;" vertex="1" parent="M6c7fhZQipC6nJDo4fWO-150">
          <mxGeometry y="60" width="250" height="30" as="geometry" />
        </mxCell>
        <mxCell id="M6c7fhZQipC6nJDo4fWO-155" value="df" style="shape=partialRectangle;connectable=0;fillColor=none;top=0;left=0;bottom=0;right=0;editable=1;overflow=hidden;" vertex="1" parent="M6c7fhZQipC6nJDo4fWO-154">
          <mxGeometry width="70" height="30" as="geometry" />
        </mxCell>
        <mxCell id="M6c7fhZQipC6nJDo4fWO-156" value="raw" style="shape=partialRectangle;connectable=0;fillColor=none;top=0;left=0;bottom=0;right=0;align=left;spacingLeft=6;overflow=hidden;" vertex="1" parent="M6c7fhZQipC6nJDo4fWO-154">
          <mxGeometry x="70" width="180" height="30" as="geometry" />
        </mxCell>
        <mxCell id="M6c7fhZQipC6nJDo4fWO-157" value="" style="shape=partialRectangle;collapsible=0;dropTarget=0;pointerEvents=0;fillColor=none;top=0;left=0;bottom=0;right=0;points=[[0,0.5],[1,0.5]];portConstraint=eastwest;" vertex="1" parent="M6c7fhZQipC6nJDo4fWO-150">
          <mxGeometry y="90" width="250" height="30" as="geometry" />
        </mxCell>
        <mxCell id="M6c7fhZQipC6nJDo4fWO-158" value="df" style="shape=partialRectangle;connectable=0;fillColor=none;top=0;left=0;bottom=0;right=0;editable=1;overflow=hidden;" vertex="1" parent="M6c7fhZQipC6nJDo4fWO-157">
          <mxGeometry width="70" height="30" as="geometry" />
        </mxCell>
        <mxCell id="M6c7fhZQipC6nJDo4fWO-159" value="summary" style="shape=partialRectangle;connectable=0;fillColor=none;top=0;left=0;bottom=0;right=0;align=left;spacingLeft=6;overflow=hidden;" vertex="1" parent="M6c7fhZQipC6nJDo4fWO-157">
          <mxGeometry x="70" width="180" height="30" as="geometry" />
        </mxCell>
        <mxCell id="M6c7fhZQipC6nJDo4fWO-160" value="" style="shape=partialRectangle;collapsible=0;dropTarget=0;pointerEvents=0;fillColor=none;top=0;left=0;bottom=0;right=0;points=[[0,0.5],[1,0.5]];portConstraint=eastwest;" vertex="1" parent="M6c7fhZQipC6nJDo4fWO-150">
          <mxGeometry y="120" width="250" height="30" as="geometry" />
        </mxCell>
        <mxCell id="M6c7fhZQipC6nJDo4fWO-161" value="df" style="shape=partialRectangle;connectable=0;fillColor=none;top=0;left=0;bottom=0;right=0;editable=1;overflow=hidden;" vertex="1" parent="M6c7fhZQipC6nJDo4fWO-160">
          <mxGeometry width="70" height="30" as="geometry" />
        </mxCell>
        <mxCell id="M6c7fhZQipC6nJDo4fWO-162" value="steps" style="shape=partialRectangle;connectable=0;fillColor=none;top=0;left=0;bottom=0;right=0;align=left;spacingLeft=6;overflow=hidden;" vertex="1" parent="M6c7fhZQipC6nJDo4fWO-160">
          <mxGeometry x="70" width="180" height="30" as="geometry" />
        </mxCell>
        <mxCell id="M6c7fhZQipC6nJDo4fWO-163" value="Cell" style="shape=table;startSize=30;container=1;collapsible=1;childLayout=tableLayout;fixedRows=1;rowLines=0;fontStyle=1;align=center;resizeLast=1;" vertex="1" collapsed="1" parent="1">
          <mxGeometry x="610" y="660" width="50" height="30" as="geometry">
            <mxRectangle width="250" height="190" as="alternateBounds" />
          </mxGeometry>
        </mxCell>
        <mxCell id="M6c7fhZQipC6nJDo4fWO-164" value="" style="shape=partialRectangle;collapsible=0;dropTarget=0;pointerEvents=0;fillColor=none;top=0;left=0;bottom=1;right=0;points=[[0,0.5],[1,0.5]];portConstraint=eastwest;" vertex="1" parent="M6c7fhZQipC6nJDo4fWO-163">
          <mxGeometry y="30" width="250" height="30" as="geometry" />
        </mxCell>
        <mxCell id="M6c7fhZQipC6nJDo4fWO-165" value="type" style="shape=partialRectangle;connectable=0;fillColor=none;top=0;left=0;bottom=0;right=0;fontStyle=1;overflow=hidden;" vertex="1" parent="M6c7fhZQipC6nJDo4fWO-164">
          <mxGeometry width="70" height="30" as="geometry" />
        </mxCell>
        <mxCell id="M6c7fhZQipC6nJDo4fWO-166" value="name" style="shape=partialRectangle;connectable=0;fillColor=none;top=0;left=0;bottom=0;right=0;align=left;spacingLeft=6;fontStyle=1;overflow=hidden;" vertex="1" parent="M6c7fhZQipC6nJDo4fWO-164">
          <mxGeometry x="70" width="180" height="30" as="geometry" />
        </mxCell>
        <mxCell id="M6c7fhZQipC6nJDo4fWO-167" value="" style="shape=partialRectangle;collapsible=0;dropTarget=0;pointerEvents=0;fillColor=none;top=0;left=0;bottom=0;right=0;points=[[0,0.5],[1,0.5]];portConstraint=eastwest;" vertex="1" parent="M6c7fhZQipC6nJDo4fWO-163">
          <mxGeometry y="60" width="250" height="30" as="geometry" />
        </mxCell>
        <mxCell id="M6c7fhZQipC6nJDo4fWO-168" value="df" style="shape=partialRectangle;connectable=0;fillColor=none;top=0;left=0;bottom=0;right=0;editable=1;overflow=hidden;" vertex="1" parent="M6c7fhZQipC6nJDo4fWO-167">
          <mxGeometry width="70" height="30" as="geometry" />
        </mxCell>
        <mxCell id="M6c7fhZQipC6nJDo4fWO-169" value="raw" style="shape=partialRectangle;connectable=0;fillColor=none;top=0;left=0;bottom=0;right=0;align=left;spacingLeft=6;overflow=hidden;" vertex="1" parent="M6c7fhZQipC6nJDo4fWO-167">
          <mxGeometry x="70" width="180" height="30" as="geometry" />
        </mxCell>
        <mxCell id="M6c7fhZQipC6nJDo4fWO-170" value="" style="shape=partialRectangle;collapsible=0;dropTarget=0;pointerEvents=0;fillColor=none;top=0;left=0;bottom=0;right=0;points=[[0,0.5],[1,0.5]];portConstraint=eastwest;" vertex="1" parent="M6c7fhZQipC6nJDo4fWO-163">
          <mxGeometry y="90" width="250" height="30" as="geometry" />
        </mxCell>
        <mxCell id="M6c7fhZQipC6nJDo4fWO-171" value="df" style="shape=partialRectangle;connectable=0;fillColor=none;top=0;left=0;bottom=0;right=0;editable=1;overflow=hidden;" vertex="1" parent="M6c7fhZQipC6nJDo4fWO-170">
          <mxGeometry width="70" height="30" as="geometry" />
        </mxCell>
        <mxCell id="M6c7fhZQipC6nJDo4fWO-172" value="summary" style="shape=partialRectangle;connectable=0;fillColor=none;top=0;left=0;bottom=0;right=0;align=left;spacingLeft=6;overflow=hidden;" vertex="1" parent="M6c7fhZQipC6nJDo4fWO-170">
          <mxGeometry x="70" width="180" height="30" as="geometry" />
        </mxCell>
        <mxCell id="M6c7fhZQipC6nJDo4fWO-173" value="" style="shape=partialRectangle;collapsible=0;dropTarget=0;pointerEvents=0;fillColor=none;top=0;left=0;bottom=0;right=0;points=[[0,0.5],[1,0.5]];portConstraint=eastwest;" vertex="1" parent="M6c7fhZQipC6nJDo4fWO-163">
          <mxGeometry y="120" width="250" height="30" as="geometry" />
        </mxCell>
        <mxCell id="M6c7fhZQipC6nJDo4fWO-174" value="df" style="shape=partialRectangle;connectable=0;fillColor=none;top=0;left=0;bottom=0;right=0;editable=1;overflow=hidden;" vertex="1" parent="M6c7fhZQipC6nJDo4fWO-173">
          <mxGeometry width="70" height="30" as="geometry" />
        </mxCell>
        <mxCell id="M6c7fhZQipC6nJDo4fWO-175" value="steps" style="shape=partialRectangle;connectable=0;fillColor=none;top=0;left=0;bottom=0;right=0;align=left;spacingLeft=6;overflow=hidden;" vertex="1" parent="M6c7fhZQipC6nJDo4fWO-173">
          <mxGeometry x="70" width="180" height="30" as="geometry" />
        </mxCell>
        <mxCell id="M6c7fhZQipC6nJDo4fWO-176" value="Cell" style="shape=table;startSize=30;container=1;collapsible=1;childLayout=tableLayout;fixedRows=1;rowLines=0;fontStyle=1;align=center;resizeLast=1;" vertex="1" collapsed="1" parent="1">
          <mxGeometry x="620" y="670" width="50" height="30" as="geometry">
            <mxRectangle width="250" height="190" as="alternateBounds" />
          </mxGeometry>
        </mxCell>
        <mxCell id="M6c7fhZQipC6nJDo4fWO-177" value="" style="shape=partialRectangle;collapsible=0;dropTarget=0;pointerEvents=0;fillColor=none;top=0;left=0;bottom=1;right=0;points=[[0,0.5],[1,0.5]];portConstraint=eastwest;" vertex="1" parent="M6c7fhZQipC6nJDo4fWO-176">
          <mxGeometry y="30" width="250" height="30" as="geometry" />
        </mxCell>
        <mxCell id="M6c7fhZQipC6nJDo4fWO-178" value="type" style="shape=partialRectangle;connectable=0;fillColor=none;top=0;left=0;bottom=0;right=0;fontStyle=1;overflow=hidden;" vertex="1" parent="M6c7fhZQipC6nJDo4fWO-177">
          <mxGeometry width="70" height="30" as="geometry" />
        </mxCell>
        <mxCell id="M6c7fhZQipC6nJDo4fWO-179" value="name" style="shape=partialRectangle;connectable=0;fillColor=none;top=0;left=0;bottom=0;right=0;align=left;spacingLeft=6;fontStyle=1;overflow=hidden;" vertex="1" parent="M6c7fhZQipC6nJDo4fWO-177">
          <mxGeometry x="70" width="180" height="30" as="geometry" />
        </mxCell>
        <mxCell id="M6c7fhZQipC6nJDo4fWO-180" value="" style="shape=partialRectangle;collapsible=0;dropTarget=0;pointerEvents=0;fillColor=none;top=0;left=0;bottom=0;right=0;points=[[0,0.5],[1,0.5]];portConstraint=eastwest;" vertex="1" parent="M6c7fhZQipC6nJDo4fWO-176">
          <mxGeometry y="60" width="250" height="30" as="geometry" />
        </mxCell>
        <mxCell id="M6c7fhZQipC6nJDo4fWO-181" value="df" style="shape=partialRectangle;connectable=0;fillColor=none;top=0;left=0;bottom=0;right=0;editable=1;overflow=hidden;" vertex="1" parent="M6c7fhZQipC6nJDo4fWO-180">
          <mxGeometry width="70" height="30" as="geometry" />
        </mxCell>
        <mxCell id="M6c7fhZQipC6nJDo4fWO-182" value="raw" style="shape=partialRectangle;connectable=0;fillColor=none;top=0;left=0;bottom=0;right=0;align=left;spacingLeft=6;overflow=hidden;" vertex="1" parent="M6c7fhZQipC6nJDo4fWO-180">
          <mxGeometry x="70" width="180" height="30" as="geometry" />
        </mxCell>
        <mxCell id="M6c7fhZQipC6nJDo4fWO-183" value="" style="shape=partialRectangle;collapsible=0;dropTarget=0;pointerEvents=0;fillColor=none;top=0;left=0;bottom=0;right=0;points=[[0,0.5],[1,0.5]];portConstraint=eastwest;" vertex="1" parent="M6c7fhZQipC6nJDo4fWO-176">
          <mxGeometry y="90" width="250" height="30" as="geometry" />
        </mxCell>
        <mxCell id="M6c7fhZQipC6nJDo4fWO-184" value="df" style="shape=partialRectangle;connectable=0;fillColor=none;top=0;left=0;bottom=0;right=0;editable=1;overflow=hidden;" vertex="1" parent="M6c7fhZQipC6nJDo4fWO-183">
          <mxGeometry width="70" height="30" as="geometry" />
        </mxCell>
        <mxCell id="M6c7fhZQipC6nJDo4fWO-185" value="summary" style="shape=partialRectangle;connectable=0;fillColor=none;top=0;left=0;bottom=0;right=0;align=left;spacingLeft=6;overflow=hidden;" vertex="1" parent="M6c7fhZQipC6nJDo4fWO-183">
          <mxGeometry x="70" width="180" height="30" as="geometry" />
        </mxCell>
        <mxCell id="M6c7fhZQipC6nJDo4fWO-186" value="" style="shape=partialRectangle;collapsible=0;dropTarget=0;pointerEvents=0;fillColor=none;top=0;left=0;bottom=0;right=0;points=[[0,0.5],[1,0.5]];portConstraint=eastwest;" vertex="1" parent="M6c7fhZQipC6nJDo4fWO-176">
          <mxGeometry y="120" width="250" height="30" as="geometry" />
        </mxCell>
        <mxCell id="M6c7fhZQipC6nJDo4fWO-187" value="df" style="shape=partialRectangle;connectable=0;fillColor=none;top=0;left=0;bottom=0;right=0;editable=1;overflow=hidden;" vertex="1" parent="M6c7fhZQipC6nJDo4fWO-186">
          <mxGeometry width="70" height="30" as="geometry" />
        </mxCell>
        <mxCell id="M6c7fhZQipC6nJDo4fWO-188" value="steps" style="shape=partialRectangle;connectable=0;fillColor=none;top=0;left=0;bottom=0;right=0;align=left;spacingLeft=6;overflow=hidden;" vertex="1" parent="M6c7fhZQipC6nJDo4fWO-186">
          <mxGeometry x="70" width="180" height="30" as="geometry" />
        </mxCell>
      </root>
    </mxGraphModel>
  </diagram>
</mxfile>
